{"title":"Trance 2013 HDRiP AC3 X264-BiTo","uid":8636507,"size":1212383000,"categoryP":"video","categoryS":"movies","magnet":"?xt=urn:btih:74963e1d1f1c73fd6e1c6165b47c3c7470b7862c&amp;dn=Trance+2013+HDRiP+AC3+X264-BiTo&amp;tr=udp%3A%2F%2Ftracker.openbittorrent.com%3A80&amp;tr=udp%3A%2F%2Fopen.demonii.com%3A1337&amp;tr=udp%3A%2F%2Ftracker.coppersurfer.tk%3A6969&amp;tr=udp%3A%2F%2Fexodus.desync.com%3A6969","seeders":3,"leechers":0,"uploader":"srkfan","files":2,"time":1372765116,"description":" &lt;a href=&quot;http://imageshack.us/a/img853/444/fu02.png&quot; rel=&quot;nofollow&quot; target=&quot;_NEW&quot;&gt;http://imageshack.us/a/img853/444/fu02.png&lt;/a&gt;\n &lt;a href=&quot;\nhttp://foto-cell.com/dosyalar/52dc4bb643a1e54.jpg&quot; rel=&quot;nofollow&quot; target=&quot;_NEW&quot;&gt;\nhttp://foto-cell.com/dosyalar/52dc4bb643a1e54.jpg&lt;/a&gt;\n\nGenre : Crime / Drama / Mystery\n\nPlot : A fine art auctioneer mixed up with a gang joins forces with a hypnotherapist to recover a lost painting. As boundaries between desire, reality and hypnotic suggestion begin to blur the stakes rise faster than anyone could have anticipated.\n\n\nSource : 720p WEB Afriend \n\nVideo \nID : 1 \nFormat : AVC \nFormat/Info : Advanced Video Codec \nFormat profile : &lt;a class=&quot;__cf_email__&quot; href=&quot;/cdn-cgi/l/email-protection&quot; data-cfemail=&quot;0b466a62654b4738253b&quot;&gt;[email&amp;#160;protected]&lt;/a&gt;&lt;script cf-hash='f9e31' type=&quot;text/javascript&quot;&gt;\n/* &lt;![CDATA[ */!function(){try{var t=&quot;currentScript&quot;in document?document.currentScript:function(){for(var t=document.getElementsByTagName(&quot;script&quot;),e=t.length;e--;)if(t[e].getAttribute(&quot;cf-hash&quot;))return t[e]}();if(t&amp;&amp;t.previousSibling){var e,r,n,i,c=t.previousSibling,a=c.getAttribute(&quot;data-cfemail&quot;);if(a){for(e=&quot;&quot;,r=parseInt(a.substr(0,2),16),n=2;a.length-n;n+=2)i=parseInt(a.substr(n,2),16)^r,e+=String.fromCharCode(i);e=document.createTextNode(e),c.parentNode.replaceChild(e,c)}}}catch(u){}}();/* ]]&gt; */&lt;/script&gt; \nFormat settings, CABAC : Yes \nFormat settings, ReFrames : 4 frames \nCodec ID : V_MPEG4/ISO/AVC \nDuration : 1h 41mn \nBit rate : 1 200 Kbps \nWidth : 720 pixels \nHeight : 304 pixels \nDisplay aspect ratio : 2.40:1 \nOriginal display aspect ratio : 2.40:1 \nFrame rate mode : Constant \nFrame rate : 23.976 fps \nColor space : YUV \nChroma subsampling : 4:2:0 \nBit depth : 8 bits \nScan type : Progressive \nBits/(Pixel*Frame) : 0.229 \nStream size : 854 MiB (74%) \nWriting library : x264 core 125 \n\n\nAudio \nID : 2 \nFormat : AC-3 \nFormat/Info : Audio Coding 3 \nMode extension : CM (complete main) \nFormat settings, Endianness : Big \nCodec ID : A_AC3 \nDuration : 1h 41mn \nBit rate mode : Constant \nBit rate : 384 Kbps \nChannel(s) : 6 channels \nChannel positions : Front: L C R, Side: L R, LFE \nSampling rate : 48.0 KHz \nBit depth : 16 bits \nCompression mode : Lossy \nStream size : 280 MiB (24%) \nLanguage : English \nDefault : Yes \nForced : No\n &lt;a href=&quot;\nhttp://www.imdb.com/title/tt1924429/&quot; rel=&quot;nofollow&quot; target=&quot;_NEW&quot;&gt;\nhttp://www.imdb.com/title/tt1924429/&lt;/a&gt;\n &lt;a href=&quot;\nhttp://foto-cell.com/dosyalar/0ef99e79eaeb18c.png&quot; rel=&quot;nofollow&quot; target=&quot;_NEW&quot;&gt;\nhttp://foto-cell.com/dosyalar/0ef99e79eaeb18c.png&lt;/a&gt; &lt;a href=&quot;\nhttp://foto-cell.com/dosyalar/da43b2317358323.png&quot; rel=&quot;nofollow&quot; target=&quot;_NEW&quot;&gt;\nhttp://foto-cell.com/dosyalar/da43b2317358323.png&lt;/a&gt; &lt;a href=&quot;\nhttp://foto-cell.com/dosyalar/13b162785b0c712.png&quot; rel=&quot;nofollow&quot; target=&quot;_NEW&quot;&gt;\nhttp://foto-cell.com/dosyalar/13b162785b0c712.png&lt;/a&gt; &lt;a href=&quot;\nhttp://foto-cell.com/dosyalar/f0caab449bb2fa2.png&quot; rel=&quot;nofollow&quot; target=&quot;_NEW&quot;&gt;\nhttp://foto-cell.com/dosyalar/f0caab449bb2fa2.png&lt;/a&gt;","torrent":{"xt":"urn:btih:74963e1d1f1c73fd6e1c6165b47c3c7470b7862c","amp;dn":"Trance+2013+HDRiP+AC3+X264-BiTo","amp;tr":["udp%3A%2F%2Ftracker.openbittorrent.com%3A80","udp%3A%2F%2Fopen.demonii.com%3A1337","udp%3A%2F%2Ftracker.coppersurfer.tk%3A6969","udp%3A%2F%2Fexodus.desync.com%3A6969"],"infoHash":"74963e1d1f1c73fd6e1c6165b47c3c7470b7862c","infoHashBuffer":{"type":"Buffer","data":[116,150,62,29,31,28,115,253,110,28,97,101,180,124,60,116,112,183,134,44]},"announce":[],"urlList":[]}}